<svg id="visual" viewBox="0 0 900 600" width="900" height="600" xmlns="http://www.w3.org/2000/svg" xmlns:xlink="http://www.w3.org/1999/xlink" version="1.1"><rect x="0" y="0" width="900" height="600" fill="#a2a2a2"></rect><path d="M0 409L21.5 405.8C43 402.7 86 396.3 128.8 401.3C171.7 406.3 214.3 422.7 257.2 418.8C300 415 343 391 385.8 384.5C428.7 378 471.3 389 514.2 401.5C557 414 600 428 642.8 431.3C685.7 434.7 728.3 427.3 771.2 415.5C814 403.7 857 387.3 878.5 379.2L900 371L900 601L878.5 601C857 601 814 601 771.2 601C728.3 601 685.7 601 642.8 601C600 601 557 601 514.2 601C471.3 601 428.7 601 385.8 601C343 601 300 601 257.2 601C214.3 601 171.7 601 128.8 601C86 601 43 601 21.5 601L0 601Z" fill="#4f1414"></path><path d="M0 452L21.5 448.8C43 445.7 86 439.3 128.8 431.5C171.7 423.7 214.3 414.3 257.2 421C300 427.7 343 450.3 385.8 462C428.7 473.7 471.3 474.3 514.2 469.2C557 464 600 453 642.8 451.8C685.7 450.7 728.3 459.3 771.2 462.8C814 466.3 857 464.7 878.5 463.8L900 463L900 601L878.5 601C857 601 814 601 771.2 601C728.3 601 685.7 601 642.8 601C600 601 557 601 514.2 601C471.3 601 428.7 601 385.8 601C343 601 300 601 257.2 601C214.3 601 171.7 601 128.8 601C86 601 43 601 21.5 601L0 601Z" fill="#6e2d2a"></path><path d="M0 468L21.5 474.8C43 481.7 86 495.3 128.8 494.8C171.7 494.3 214.3 479.7 257.2 474.2C300 468.7 343 472.3 385.8 468.3C428.7 464.3 471.3 452.7 514.2 454.8C557 457 600 473 642.8 479.3C685.7 485.7 728.3 482.3 771.2 477.8C814 473.3 857 467.7 878.5 464.8L900 462L900 601L878.5 601C857 601 814 601 771.2 601C728.3 601 685.7 601 642.8 601C600 601 557 601 514.2 601C471.3 601 428.7 601 385.8 601C343 601 300 601 257.2 601C214.3 601 171.7 601 128.8 601C86 601 43 601 21.5 601L0 601Z" fill="#8e4742"></path><path d="M0 503L21.5 503.2C43 503.3 86 503.7 128.8 501.8C171.7 500 214.3 496 257.2 499.2C300 502.3 343 512.7 385.8 511C428.7 509.3 471.3 495.7 514.2 498.2C557 500.7 600 519.3 642.8 525.2C685.7 531 728.3 524 771.2 517.8C814 511.7 857 506.3 878.5 503.7L900 501L900 601L878.5 601C857 601 814 601 771.2 601C728.3 601 685.7 601 642.8 601C600 601 557 601 514.2 601C471.3 601 428.7 601 385.8 601C343 601 300 601 257.2 601C214.3 601 171.7 601 128.8 601C86 601 43 601 21.5 601L0 601Z" fill="#b0615c"></path><path d="M0 540L21.5 538.8C43 537.7 86 535.3 128.8 534.5C171.7 533.7 214.3 534.3 257.2 535.3C300 536.3 343 537.7 385.8 541.3C428.7 545 471.3 551 514.2 551.2C557 551.3 600 545.7 642.8 546.2C685.7 546.7 728.3 553.3 771.2 552.2C814 551 857 542 878.5 537.5L900 533L900 601L878.5 601C857 601 814 601 771.2 601C728.3 601 685.7 601 642.8 601C600 601 557 601 514.2 601C471.3 601 428.7 601 385.8 601C343 601 300 601 257.2 601C214.3 601 171.7 601 128.8 601C86 601 43 601 21.5 601L0 601Z" fill="#d27d77"></path></svg>
