<svg id="visual" viewBox="0 0 900 600" width="900" height="600" xmlns="http://www.w3.org/2000/svg" xmlns:xlink="http://www.w3.org/1999/xlink" version="1.1"><path d="M0 91L82 121L164 79L245 121L327 109L409 49L491 91L573 67L655 91L736 79L818 109L900 115L900 0L818 0L736 0L655 0L573 0L491 0L409 0L327 0L245 0L164 0L82 0L0 0Z" fill="#00cc8e"></path><path d="M0 271L82 271L164 307L245 259L327 187L409 211L491 343L573 253L655 229L736 313L818 271L900 265L900 113L818 107L736 77L655 89L573 65L491 89L409 47L327 107L245 119L164 77L82 119L0 89Z" fill="#00b98a"></path><path d="M0 451L82 439L164 433L245 403L327 421L409 367L491 457L573 361L655 367L736 469L818 421L900 397L900 263L818 269L736 311L655 227L573 251L491 341L409 209L327 185L245 257L164 305L82 269L0 269Z" fill="#00a784"></path><path d="M0 559L82 517L164 565L245 523L327 559L409 529L491 523L573 499L655 505L736 553L818 547L900 541L900 395L818 419L736 467L655 365L573 359L491 455L409 365L327 419L245 401L164 431L82 437L0 449Z" fill="#00957c"></path><path d="M0 601L82 601L164 601L245 601L327 601L409 601L491 601L573 601L655 601L736 601L818 601L900 601L900 539L818 545L736 551L655 503L573 497L491 521L409 527L327 557L245 521L164 563L82 515L0 557Z" fill="#038373"></path></svg>
