<svg xmlns="http://www.w3.org/2000/svg" viewBox="0 0 24 24" fill="currentColor">
  <path d="M19.665 16.811a10.316 10.316 0 0 1-1.021 1.837c-.537.767-.978 1.297-1.316 1.592-.525.482-1.089.73-1.692.744-.432 0-.954-.123-1.569-.37-.615-.247-1.133-.528-1.554-.845-.42-.317-.787-.679-1.1-1.084-.313-.405-.52-.846-.622-1.322-.112-.509-.165-1.04-.16-1.599.005-.559.086-1.101.243-1.628.157-.527.421-1.026.793-1.496.372-.47.819-.917 1.242-1.342.423-.425.696-.849.84-1.271.144-.422.216-.836.216-1.242 0-.319-.031-.624-.092-.917-.061-.293-.144-.557-.25-.793-.106-.236-.226-.45-.36-.643-.134-.193-.279-.371-.435-.534-.156-.163-.325-.312-.508-.446-.183-.134-.378-.259-.585-.375-.207-.116-.427-.221-.66-.316-.233-.095-.48-.177-.74-.246-.26-.069-.535-.128-.826-.179-.291-.051-.598-.091-.92-.121-.322-.03-.66-.046-1.014-.046-.364 0-.724.034-1.082.102-.358.068-.697.168-1.018.3-.321.132-.624.291-.909.477-.285.186-.555.405-.81.658-.255.253-.496.54-.723.859-.227.319-.442.672-.643 1.058-.201.386-.396.817-.584 1.293-.188.476-.354.999-.497 1.569-.143.57-.258 1.188-.344 1.854-.086.666-.128 1.38-.128 2.142 0 .752.051 1.475.154 2.17.103.695.259 1.368.468 2.02.209.652.463 1.282.762 1.889.299.607.646 1.19 1.041 1.749.395.559.824 1.096 1.286 1.61.462.514.957.998 1.486 1.452.529.454 1.084.88 1.666 1.278.582.398 1.199.757 1.849 1.078.65.321 1.331.604 2.044.849.713.245 1.464.458 2.253.64.789.182 1.618.323 2.486.422.868.099 1.778.148 2.729.148.951 0 1.861-.049 2.729-.148.868-.099 1.697-.24 2.486-.422.789-.182 1.54-.395 2.253-.64.713-.245 1.394-.528 2.044-.849.65-.321 1.267-.68 1.849-1.078.582-.398 1.137-.824 1.666-1.278.529-.454 1.024-.938 1.486-1.452.462-.514.891-1.057 1.286-1.61.395-.559.742-1.142 1.041-1.749.299-.607.553-1.237.762-1.889.209-.652.365-1.325.468-2.02.103-.695.154-1.418.154-2.17 0-.762-.042-1.476-.128-2.142-.086-.666-.201-1.284-.344-1.854-.143-.57-.309-1.093-.497-1.569-.188-.476-.383-.917-.584-1.293-.201-.386-.416-.739-.643-1.058-.227-.319-.468-.606-.723-.859-.255-.253-.525-.472-.81-.658-.285-.186-.588-.345-.909-.477-.321-.132-.66-.232-1.018-.3-.358-.068-.718-.102-1.082-.102-.354 0-.692.016-1.014.046-.322.03-.629.07-.92.121-.291.051-.566.11-.826.179-.26.069-.507.151-.74.246-.233.095-.453.2-.66.316-.207.116-.402.241-.585.375-.183.134-.352.283-.508.446-.156.163-.301.341-.435.534-.134.193-.244.437-.36.643-.106.236-.189.5-.25.793-.061.293-.092.598-.092.917 0 .406.072.82.216 1.242.144.422.417.846.84 1.271.423.425.87.872 1.242 1.342.372.47.636.969.793 1.496.157.527.238 1.069.243 1.628.005.559-.048 1.09-.16 1.599-.102.476-.309.917-.622 1.322-.313.405-.68.767-1.1 1.084-.42.317-.939.598-1.554.845-.615.247-1.137.37-1.569.37-.603-.014-1.167-.262-1.692-.744-.338-.295-.779-.825-1.316-1.592a10.316 10.316 0 0 1-1.021-1.837c-.249-.356-.47-.698-.665-1.025-.195-.327-.36-.646-.497-.958-.137-.312-.244-.616-.323-.913-.079-.297-.119-.583-.119-.859 0-.276.04-.562.119-.859.079-.297.186-.601.323-.913.137-.312.302-.631.497-.958.195-.327.416-.669.665-1.025.249-.356.52-.694.814-1.013.304-.319.64-.618 1.008-.897.368-.279.779-.527 1.242-.745.463-.218.979-.406 1.547-.565.568-.159 1.189-.282 1.864-.369.675-.087 1.406-.131 2.193-.131.787 0 1.518.044 2.193.131.675.087 1.296.21 1.864.369.568.159 1.084.347 1.547.565.463.218.874.466 1.242.745.368.279.704.578 1.008.897.304.319.565.657.814 1.013z"/>
</svg>
